<svg xmlns="http://www.w3.org/2000/svg" viewBox="0 0 512 512" role="img" aria-labelledby="title desc">
  <title id="title">Omega Marca</title>
  <desc id="desc">Simbolo omega azul com faixas laranja</desc>
  <defs>
    <linearGradient id="blue" x1="0" y1="0" x2="1" y2="1">
      <stop offset="0" stop-color="#0f1e96"/>
      <stop offset="1" stop-color="#08106f"/>
    </linearGradient>
    <linearGradient id="orange" x1="0" y1="0" x2="1" y2="1">
      <stop offset="0" stop-color="#ff9600"/>
      <stop offset="1" stop-color="#ff6a00"/>
    </linearGradient>
  </defs>

  <path fill="url(#blue)" d="M256 32C136.7 32 40 128.7 40 248c0 81.5 45.2 152.4 111.8 189H68v43h145v-85c-62-19.3-107-77.1-107-147 0-85.1 69.2-154 154-154s154 68.9 154 154c0 69.9-45 127.7-107 147v85h145v-43h-83.8C426.8 400.4 472 329.5 472 248 472 128.7 375.3 32 256 32Z"/>

  <path fill="url(#orange)" d="M284 183c20-24 63-35 112-33-22 20-35 41-38 63-38 2-63 11-85 31l11-61Z"/>
  <path fill="url(#orange)" d="M276 244c23-24 68-35 121-33-24 20-38 41-42 63-42 2-70 11-93 31l14-61Z"/>
  <path fill="url(#orange)" d="M266 306c26-24 75-35 133-33-26 20-42 41-47 63-46 2-76 11-102 31l16-61Z"/>
</svg>
